# xmcd
#
# Track frame offsets: 
#        151
#        15784
#        31961
#        49626
#        66005
#        81710
#        95505
#        113304
#        127665
#        147478
#
# Disc length: 2189 seconds
#
# Revision: 0
# Processed by: cddbd v1.5.2PL0 Copyright (c) Steve Scherf et al.
# Submitted via: ExactAudioCopy v0.95b4
#
DISCID=74088b0a
DTITLE=ดอกรัก ดวงมาลา - ในใจอยากได้สอง
DYEAR=2006
DGENRE=Country
TTITLE0=ในใจอยากได้สอง
TTITLE1=ขอน้องก่อน
TTITLE2=คนเก่ามาขอสิทธิ์
TTITLE3=ถามข่าวฉันบ้าง
TTITLE4=ระวังฟ้าเหลื่อม
TTITLE5=มักก็ให้แม่มาขอ
TTITLE6=อย่าเด้อ
TTITLE7=อ่อมหอย
TTITLE8=ฟ้าผ่าแล้ง
TTITLE9=นางเอกขี้เมา
EXTD=
EXTT0=
EXTT1=
EXTT2=
EXTT3=
EXTT4=
EXTT5=
EXTT6=
EXTT7=
EXTT8=
EXTT9=
PLAYORDER=
